<?xml version="1.0" standalone="no"?><!DOCTYPE svg PUBLIC "-//W3C//DTD SVG 1.1//EN" "http://www.w3.org/Graphics/SVG/1.1/DTD/svg11.dtd"><svg t="1562243816982" class="icon" viewBox="0 0 1024 1024" version="1.1" xmlns="http://www.w3.org/2000/svg" p-id="4020" xmlns:xlink="http://www.w3.org/1999/xlink" width="128" height="128"><defs><style type="text/css"></style></defs><path d="M511.669472 47.886637c-256.326946 0-464.113363 207.795627-464.113363 464.104153 0 256.328993 207.786417 464.122573 464.113363 464.122573 256.322853 0 464.113363-207.794603 464.113363-464.122573C975.782835 255.68124 767.992325 47.886637 511.669472 47.886637zM511.669472 935.756213c-234.280838 0-423.75826-189.471282-423.75826-423.765423 0-234.267535 189.477422-423.747004 423.75826-423.747004s423.75519 189.480492 423.75519 423.747004C935.423639 746.284931 745.95031 935.756213 511.669472 935.756213zM699.861622 502.421854 443.460997 334.444095c-9.432837-6.028297-21.422915-6.39771-31.195489-1.030469-9.813506 5.384637-21.588691 15.692401-21.588691 26.859741l0 323.138608c0 11.130502 11.694343 21.370727 21.428032 26.765597 4.629437 2.593058 9.752108 3.861958 14.878872 3.861958 5.627161 0 11.229762-1.533936 16.179494-4.609994l256.396531-155.161872c8.937556-5.564739 14.397918-15.313777 14.46034-25.837458C714.081485 517.89629 708.735733 508.09097 699.861622 502.421854z" p-id="4021"></path></svg>