<?xml version="1.0" standalone="no"?><!DOCTYPE svg PUBLIC "-//W3C//DTD SVG 1.1//EN" "http://www.w3.org/Graphics/SVG/1.1/DTD/svg11.dtd"><svg t="1562243567171" class="icon" viewBox="0 0 1666 1024" version="1.1" xmlns="http://www.w3.org/2000/svg" p-id="2830" xmlns:xlink="http://www.w3.org/1999/xlink" width="800" height="300"><defs><style type="text/css"></style></defs><path d="M500.075 85.317c6.205 0 11.44 5.042 11.44 11.44v62.437c0 6.205-5.041 11.44-11.44 11.44-6.205 0-11.44-5.041-11.44-11.44v-62.63c0-6.205 5.041-11.247 11.44-11.247zM907.077 85.317c6.205 0 11.44 5.042 11.44 11.44v62.437c0 6.205-5.042 11.44-11.44 11.44-6.205 0-11.44-5.041-11.44-11.44v-62.63c0.193-6.205 5.235-11.247 11.44-11.247zM1246.406 85.317c6.205 0 11.44 5.042 11.44 11.44v62.437c0 6.205-5.04 11.44-11.44 11.44-6.205 0-11.44-5.041-11.44-11.44v-62.63c0.194-6.205 5.235-11.247 11.44-11.247zM1653.602 85.317c6.205 0 11.44 5.042 11.44 11.44v62.437c0 6.205-5.041 11.44-11.44 11.44-6.205 0-11.44-5.041-11.44-11.44v-62.63c0-6.205 5.235-11.247 11.44-11.247zM974.943 62.63c6.205 0 11.44 5.042 11.44 11.44v96.758c0 6.205-5.042 11.44-11.44 11.44-6.205 0-11.44-5.041-11.44-11.44V73.877c0.193-6.205 5.235-11.246 11.44-11.246zM1178.54 51.19c6.205 0 11.44 5.042 11.44 11.44v119.445c0 6.204-5.04 11.44-11.44 11.44-6.204 0-11.44-5.042-11.44-11.44V62.63c0.194-6.4 5.236-11.44 11.44-11.44zM1042.809 90.94c6.204 0 11.44 5.042 11.44 11.44v45.568c0 6.205-5.042 11.44-11.44 11.44-6.205 0-11.44-5.041-11.44-11.44V102.38c0.193-6.205 5.235-11.44 11.44-11.44zM1110.674 79.694c6.205 0 11.44 5.041 11.44 11.44v73.877c0 6.205-5.04 11.44-11.44 11.44-6.204 0-11.44-5.041-11.44-11.44V91.134c0.194-6.399 5.236-11.44 11.44-11.44zM432.21 51.19c6.204 0 11.44 5.042 11.44 11.44v119.445c0 6.204-5.042 11.44-11.44 11.44-6.206 0-11.441-5.042-11.441-11.44V62.63c0-6.4 5.041-11.44 11.44-11.44zM364.343 90.94c6.205 0 11.44 5.042 11.44 11.44v45.568c0 6.205-5.041 11.44-11.44 11.44-6.205 0-11.44-5.041-11.44-11.44V102.38c0-6.205 5.041-11.44 11.44-11.44zM567.94 62.63c6.206 0 11.441 5.042 11.441 11.44v102.381c0 6.205-5.041 11.44-11.44 11.44-6.205 0-11.44-5.04-11.44-11.44V73.877c0-6.205 5.041-11.246 11.44-11.246zM839.21 62.63c6.206 0 11.441 5.042 11.441 11.44v102.381c0 6.205-5.041 11.44-11.44 11.44-6.205 0-11.44-5.04-11.44-11.44V73.877c0.193-6.205 5.235-11.246 11.44-11.246zM1314.272 62.63c6.205 0 11.44 5.042 11.44 11.44v108.005c0 6.204-5.04 11.44-11.44 11.44-6.205 0-11.44-5.042-11.44-11.44V73.877c0.194-6.205 5.235-11.246 11.44-11.246zM1585.736 62.63c6.205 0 11.44 5.042 11.44 11.44v102.381c0 6.205-5.041 11.44-11.44 11.44-6.205 0-11.44-5.04-11.44-11.44V73.877c0-6.205 5.235-11.246 11.44-11.246zM635.807 51.19c6.205 0 11.44 5.042 11.44 11.44v125.068c0 6.205-5.041 11.44-11.44 11.44-6.205 0-11.44-5.041-11.44-11.44V62.63c0-6.4 5.041-11.44 11.44-11.44zM771.345 45.567c6.205 0 11.44 5.042 11.44 11.44v142.131c0 6.205-5.041 11.44-11.44 11.44-6.205 0-11.44-5.041-11.44-11.44V57.008c0.193-6.4 5.235-11.44 11.44-11.44zM1382.138 39.75c6.205 0 11.44 5.042 11.44 11.44v147.948c0 6.205-5.041 11.44-11.44 11.44-6.205 0-11.44-5.041-11.44-11.44V51.19c0.194-6.205 5.235-11.44 11.44-11.44zM1517.87 39.75c6.205 0 11.44 5.042 11.44 11.44v147.948c0 6.205-5.041 11.44-11.44 11.44-6.205 0-11.44-5.041-11.44-11.44V51.19c0-6.205 5.235-11.44 11.44-11.44zM703.673 0c6.205 0 11.44 5.041 11.44 11.44v227.642c0 6.205-5.041 11.44-11.44 11.44-6.205 0-11.44-5.041-11.44-11.44V11.44c0-6.399 5.041-11.44 11.44-11.44zM1450.004 11.44c6.205 0 11.44 5.042 11.44 11.44v204.762c0 6.205-5.041 11.44-11.44 11.44-6.205 0-11.44-5.041-11.44-11.44V22.687c0-6.205 5.235-11.247 11.44-11.247z" p-id="2831"></path></svg>