<?xml version="1.0" standalone="no"?><!DOCTYPE svg PUBLIC "-//W3C//DTD SVG 1.1//EN" "http://www.w3.org/Graphics/SVG/1.1/DTD/svg11.dtd"><svg t="1564118241478" class="icon" viewBox="0 0 1024 1024" version="1.1" xmlns="http://www.w3.org/2000/svg" p-id="3302" xmlns:xlink="http://www.w3.org/1999/xlink" width="128" height="128"><defs><style type="text/css"></style></defs><path d="M423.129 512.362c-19.654-26.222-52.414-52.443-78.626-72.108C259.32 368.146 180.715 296.038 167.6 86.273h-26.202c-19.653 0-39.308-19.654-39.308-39.328 0-19.664 19.654-39.328 39.308-39.328h727.255c19.654 0 39.307 19.664 39.307 39.328 0 19.674-19.653 39.328-39.307 39.328H842.45c-6.548 209.765-91.72 275.326-176.905 353.981-26.202 19.664-52.414 45.886-78.615 72.108 26.201 26.222 52.413 52.434 78.615 72.109 85.184 72.108 170.357 144.215 176.905 353.98h26.202c19.654 0 39.307 19.664 39.307 39.328 0 19.674-19.653 39.338-39.307 39.338H141.397c-19.653 0-39.308-19.664-39.308-39.338 0-19.664 19.654-39.327 39.308-39.327H167.6c6.548-209.766 91.721-275.316 176.905-353.981 26.211-19.676 58.971-45.888 78.625-72.109z m-176.905 426.09h32.76l209.665-209.766c6.548-6.548 26.202-6.548 32.75 0l209.676 209.766h32.75c-6.549-176.997-78.626-229.44-150.694-294.98-32.76-32.78-72.077-59.001-104.827-104.888-39.308 45.887-72.078 72.109-111.386 104.888-72.068 65.54-144.146 117.983-150.694 294.98z m65.52-648.962H711.41c32.76-45.896 58.972-104.888 58.972-203.217H246.224c6.548 98.33 26.212 157.32 65.52 203.217z" fill="#797979" p-id="3303"></path></svg>