<?xml version="1.0" standalone="no"?><!DOCTYPE svg PUBLIC "-//W3C//DTD SVG 1.1//EN" "http://www.w3.org/Graphics/SVG/1.1/DTD/svg11.dtd"><svg t="1562243850745" class="icon" viewBox="0 0 1024 1024" version="1.1" xmlns="http://www.w3.org/2000/svg" p-id="4778" xmlns:xlink="http://www.w3.org/1999/xlink" width="128" height="128"><defs><style type="text/css"></style></defs><path d="M678.528 642.304c0 17.6-14.4 32-32 32h-268.992a32 32 0 0 1-32-32V381.696a32 32 0 0 1 32-32h268.992c17.6 0 32 14.4 32 32v260.608z" p-id="4779"></path><path d="M1015.552 512.128a502.656 502.656 0 0 0-503.68-503.68 502.208 502.208 0 0 0-356.096 147.264 502.016 502.016 0 0 0-147.328 356.416 500.288 500.288 0 0 0 146.816 356.736 499.584 499.584 0 0 0 356.544 146.688c277.312-2.816 503.744-226.24 503.744-503.424z m-947.968 0a444.288 444.288 0 0 1 444.288-444.544c246.976 0 447.296 200.128 447.296 444.544 0 244.032-200.32 444.416-447.296 444.416a442.304 442.304 0 0 1-444.288-444.416z" p-id="4780"></path></svg>