<?xml version="1.0" standalone="no"?><!DOCTYPE svg PUBLIC "-//W3C//DTD SVG 1.1//EN" "http://www.w3.org/Graphics/SVG/1.1/DTD/svg11.dtd"><svg t="1562243399765" class="icon" viewBox="0 0 1024 1024" version="1.1" xmlns="http://www.w3.org/2000/svg" p-id="2002" xmlns:xlink="http://www.w3.org/1999/xlink" width="128" height="128"><defs><style type="text/css"></style></defs><path d="M898.27758 420.896797c-20.042705 0-34.619217 14.576512-36.441281 32.797153 0 1.822064 0 5.466192-1.822064 14.576513l-5.466192 43.729537c-9.11032 47.373665-23.686833 91.103203-41.907474 129.366548-60.128114 120.256228-160.341637 182.206406-298.818505 182.206406-138.476868 0-240.512456-60.128114-298.818505-180.384342-20.042705-38.263345-32.797153-81.992883-41.907474-127.544484-1.822064-14.576512-5.466192-27.330961-5.466192-41.907473 0-5.466192-1.822064-9.11032-1.822064-14.576513 0-9.11032-3.644128-18.220641-10.932384-23.686832-7.288256-5.466192-16.398577-9.11032-25.508897-9.110321-9.11032 0-18.220641 3.644128-23.686833 10.932385-9.11032 7.288256-12.754448 16.398577-12.754448 25.508896 0 7.288256 1.822064 30.975089 9.11032 67.416371 10.932384 52.839858 27.330961 102.035587 49.19573 145.765124 65.594306 133.010676 174.918149 205.893238 322.505338 216.825623v61.950178H253.266904c-20.042705 0-34.619217 14.576512-34.619217 34.619217 0 18.220641 16.398577 34.619217 34.619217 34.619217H767.088968c20.042705 0 34.619217-14.576512 34.619217-34.619217 0-18.220641-16.398577-34.619217-34.619217-34.619217H541.153025V892.811388c153.053381-9.11032 264.199288-81.992883 331.615658-220.469751 21.864769-45.551601 38.263345-94.747331 49.19573-147.587189 7.288256-36.441281 9.11032-60.128114 9.11032-67.41637 0-20.042705-14.576512-34.619217-32.797153-36.441281z" p-id="2003"></path><path d="M502.88968 732.469751h3.644128c63.772242 0 122.078292-23.686833 167.629893-67.41637 43.729537-41.907473 69.238434-100.213523 69.238434-160.341637l3.644128-269.665481C748.868327 107.501779 643.188612 1.822064 512 0h-3.644128c-63.772242 0-122.078292 23.686833-167.629893 67.41637-43.729537 43.729537-69.238434 100.213523-69.238435 160.341637l-3.644128 269.665481c-1.822064 127.544484 103.857651 233.224199 235.046264 235.046263z m-163.985765-502.88968c1.822064-91.103203 78.348754-165.807829 173.096085-163.985765 94.747331 1.822064 169.451957 76.52669 167.629893 169.451957L675.985765 504.711744c-1.822064 91.103203-78.348754 165.807829-173.096085 163.985765-94.747331-1.822064-169.451957-76.52669-167.629894-169.451957l3.644129-269.665481z" p-id="2004"></path></svg>