<?xml version="1.0" encoding="utf-8"?>
<!-- Generator: Adobe Illustrator 18.0.0, SVG Export Plug-In . SVG Version: 6.00 Build 0)  -->
<!DOCTYPE svg PUBLIC "-//W3C//DTD SVG 1.1//EN" "http://www.w3.org/Graphics/SVG/1.1/DTD/svg11.dtd">
<svg version="1.1" id="图层_1" xmlns="http://www.w3.org/2000/svg" xmlns:xlink="http://www.w3.org/1999/xlink" x="0px" y="0px"
	 viewBox="0 0 960 560" enable-background="new 0 0 960 560" xml:space="preserve">
<g>
	<path fill="#67C23A" d="M394.8,0c-154.7,0-280,125.3-280,280s125.3,280,280,280c154.7,0,280-125.3,280-280
		C674.8,125.3,549.5,0,394.8,0z M394.8,489.2c-115.4,0-209.2-93.8-209.2-209.2S279.4,70.8,394.8,70.8S604,164.6,604,280
		C604,395.4,510.2,489.2,394.8,489.2z"/>
	<path fill="#67C23A" d="M486.5,274.7h-56.6V136.6c0-19.5-15.9-35.4-35.4-35.4S359,117.2,359,136.6v173.5
		c0,19.5,15.9,35.4,35.4,35.4h92c19.5,0,35.4-15.9,35.4-35.4S505.9,274.7,486.5,274.7z"/>
</g>
</svg>
