<?xml version="1.0" encoding="utf-8"?>
<!-- Generator: Adobe Illustrator 18.0.0, SVG Export Plug-In . SVG Version: 6.00 Build 0)  -->
<!DOCTYPE svg PUBLIC "-//W3C//DTD SVG 1.1//EN" "http://www.w3.org/Graphics/SVG/1.1/DTD/svg11.dtd">
<svg version="1.1" id="图层_1" xmlns="http://www.w3.org/2000/svg" xmlns:xlink="http://www.w3.org/1999/xlink" x="0px" y="0px"
	 viewBox="0 0 960 560" enable-background="new 0 0 960 560" xml:space="preserve">
<g>
	<path fill="#666666" d="M485.1-13.5c-154.7,0-280,125.3-280,280s125.3,280,280,280s280-125.3,280-280S639.8-13.5,485.1-13.5z
		 M485.1,475.7c-115.4,0-209.2-93.8-209.2-209.2S369.7,57.3,485.1,57.3s209.2,93.8,209.2,209.2S600.5,475.7,485.1,475.7z"/>
	<path fill="#666666" d="M630.6,166c-13.8-13.8-36.1-13.8-49.9,0L452.9,293.8l-63-54.2c-14.9-12.7-37.2-11-49.9,3.9
		c-12.7,14.9-11,37.2,3.9,49.9l88.1,75.4c6.7,5.7,14.9,8.5,23,8.5c9.2,0,18.1-3.5,25.1-10.3l151.2-151.2
		C644.4,202.1,644.4,179.8,630.6,166z"/>
</g>
</svg>
