<?xml version="1.0" standalone="no"?><!DOCTYPE svg PUBLIC "-//W3C//DTD SVG 1.1//EN" "http://www.w3.org/Graphics/SVG/1.1/DTD/svg11.dtd"><svg t="1564118301678" class="icon" viewBox="0 0 1024 1024" version="1.1" xmlns="http://www.w3.org/2000/svg" p-id="4753" xmlns:xlink="http://www.w3.org/1999/xlink" width="128" height="128"><defs><style type="text/css"></style></defs><path d="M220.4 499.9a48 48.4 0 1 0 96 0 48 48.4 0 1 0-96 0Z" fill="#797979" p-id="4754"></path><path d="M629.7 118.9c-23.5-20.8-59.3-18.6-80.1 4.8-20.8 23.4-18.6 59.3 4.8 80.1C641.6 281 691.5 391.5 691.5 507c0 120.6-53.7 234.3-147.4 312.1-24.1 20-27.4 55.8-7.4 79.9 11.2 13.5 27.4 20.5 43.7 20.5 12.8 0 25.6-4.3 36.2-13.1C736.3 807 805 661.4 805 507c0-147.9-63.9-289.4-175.3-388.1z" fill="#797979" p-id="4755"></path><path d="M457.1 262.8c-24-20-59.8-16.7-79.9 7.5-20 24.1-16.6 59.9 7.5 79.8 42.5 35.2 66.8 88.6 66.8 146.4 0 60.4-27.4 117-73.3 151.5-25 18.8-30.1 54.4-11.2 79.4 11.1 14.8 28.2 22.6 45.4 22.6 11.9 0 23.8-3.7 34-11.4C520.7 682.9 565 592.4 565 496.5c0-91.7-39.3-176.9-107.9-233.7z" fill="#797979" p-id="4756"></path></svg>